<svg id="Master_Line" enable-background="new 0 0 512 512" viewBox="0 0 512 512" xmlns="http://www.w3.org/2000/svg"><path d="m441.68 426.11c-5.4-42.13-75.04-75.13-117.32-73.25-43.66 1.94-179.9-6.2-254.7 22.7 9.49 36.58 18.91 61.25 3.13 91.13s28.4 36.39 126.23 36.32 249.3.07 242.99-72.64c-.12-1.37-.23-2.79-.33-4.26z" fill="#fcebe3"/><path d="m383.96 371.85c1.07 20.53-1 39.35 0 59.39.79 15.87-13.19-4.28-21.13-16.14-6.29-9.4-17.15 26.24-26.12 21.1-7.05-4.03-3.45-38.69-1.29-64.36" fill="#488530"/><path d="m441.68 426.11c.1 1.47.21 2.9.33 4.26-.04-1.46-.15-2.88-.33-4.26z" fill="none"/><path d="m325.65 375.55c42.28-1.88 110.64 8.42 116.03 50.55-5.29-77.46 12.71-312.5.33-381.53-12.62-70.34-234.56-12.44-303.99-25.07-69.43-12.61-72.57-6.48-69.43 78.9 1.73 47.04-8.43 240.57 1.07 277.15 97.41-3.61 212.32 1.94 255.99 0z" fill="#80d261"/><path d="m245.84 439.52c-11.9 0-25.77-.67-40.84-1.39-31.15-1.49-66.45-3.19-91.55 1.18-4.36.76-8.5-2.16-9.25-6.51-.76-4.35 2.16-8.5 6.51-9.25 26.84-4.67 63.09-2.93 95.06-1.4 23.97 1.15 46.61 2.24 59.95.3 4.38-.64 8.43 2.39 9.07 6.77s-2.39 8.43-6.77 9.07c-6.2.89-13.69 1.23-22.18 1.23z" fill="#967d78"/><path d="m387.28 334.59c-4.13 0-7.63-3.17-7.96-7.36-5.07-62.67-2.7-118.01-.61-166.83 1.88-43.99 3.66-85.54-.28-125.13-.44-4.4 2.77-8.31 7.17-8.75 4.4-.43 8.32 2.77 8.75 7.17 4.05 40.72 2.25 82.82.34 127.39-2.07 48.36-4.41 103.18.57 164.86.36 4.4-2.92 8.26-7.33 8.62-.22.02-.43.03-.65.03z" fill="#488530"/><path d="m183.01 120.01c32.68 0 20.98-39.52 46.96-39.52 21.32 0 19.08 30.18 39.91 31.29 28.96 1.54 39.52 12.03 42 37.81 2.25 23.49 25.98 30.91 30.48 49.3 4.03 16.45-34.44 31.25-36.26 48.85s-.06 37.14-19.94 35.76c-31.37-2.18-36.26 26.41-52.57 29.71-16.32 3.3-34.2-34.05-50.52-34.05s-41.81 5.25-40.91-32.47c.49-20.43-28.22-39.53-30.03-47.79s32.8-22.76 32.8-49.17 9.08-29.72 38.08-29.72z" fill="#488530"/><g fill="#ffd15b"><path d="m202.81 152.92c.9-2.49-1.79-4.77-4.08-3.42-14.86 8.74-48.06 33.23-33.71 71.42 17.09 45.49 80.05 35.15 95.89 7.53 1.25-2.18-.77-4.79-3.2-4.14-20.49 5.52-86.99 17.47-54.9-71.39z"/><path d="m252.03 140.89c-3.88 5.95-10.57 14.88-18.72 20.47-1.36.93-1.61 2.85-.56 4.13 3.25 3.94 9.36 12.38 12.38 23.2.64 2.29 3.6 2.88 5.03.98 4.19-5.58 11.4-14.35 19.03-19.8 1.28-.91 1.56-2.69.66-3.98-3.13-4.5-9.72-14.62-12.7-24.28-.72-2.32-3.8-2.75-5.12-.72z"/></g></svg>