<svg viewBox="0 0 32 32" xmlns="http://www.w3.org/2000/svg"><circle cx="16" cy="15.5" fill="#fff200" r="7"/><g fill="#f7941d"><path d="m16 6.5a1 1 0 0 1 -1-1v-3a1 1 0 0 1 2 0v3a1 1 0 0 1 -1 1z"/><path d="m16 29.5a1 1 0 0 1 -1-1v-3a1 1 0 0 1 2 0v3a1 1 0 0 1 -1 1z"/><path d="m6 16.5h-3a1 1 0 0 1 0-2h3a1 1 0 0 1 0 2z"/><path d="m29 16.5h-3a1 1 0 0 1 0-2h3a1 1 0 0 1 0 2z"/><path d="m8.93 9.43a1 1 0 0 1 -.71-.29l-2.12-2.14a1 1 0 0 1 1.41-1.4l2.13 2.12a1 1 0 0 1 0 1.42 1 1 0 0 1 -.71.29z"/><path d="m25.19 25.69a1 1 0 0 1 -.7-.29l-2.13-2.12a1 1 0 0 1 1.42-1.42l2.12 2.14a1 1 0 0 1 0 1.41 1 1 0 0 1 -.71.28z"/><path d="m6.81 25.69a1 1 0 0 1 -.71-.29 1 1 0 0 1 0-1.4l2.12-2.13a1 1 0 0 1 1.42 1.42l-2.13 2.11a1 1 0 0 1 -.7.29z"/><path d="m23.07 9.43a1 1 0 0 1 -.71-.29 1 1 0 0 1 0-1.42l2.13-2.12a1 1 0 1 1 1.41 1.4l-2.12 2.14a1 1 0 0 1 -.71.29z"/><path d="m16 23.5a8 8 0 1 1 8-8 8 8 0 0 1 -8 8zm0-14a6 6 0 1 0 6 6 6 6 0 0 0 -6-6z"/></g></svg>