<svg height="512" viewBox="0 0 60 60" width="512" xmlns="http://www.w3.org/2000/svg"><g id="Page-1" fill="none" fill-rule="evenodd"><g id="054---Early-Riser" fill-rule="nonzero"><path id="Shape" d="m45.65 44c7.5319728-8.4180055 7.0556956-21.2859549-1.0779621-29.1241336-8.1336576-7.83817865-21.0104182-7.83817865-29.1440758 0-8.13365772 7.8381787-8.60993493 20.7061281-1.0779621 29.1241336z" fill="#f0c419"/><g fill="#f3d55b"><path id="Shape" d="m5 31h-4c-.55228475 0-1-.4477153-1-1s.44771525-1 1-1h4c.55228475 0 1 .4477153 1 1s-.44771525 1-1 1z"/><path id="Shape" d="m8.348 18.5c-.17553897-.0000077-.34798325-.0462228-.5-.134l-3.464-2c-.47421361-.2780058-.63512861-.886647-.36027453-1.3626943s.88241457-.640996 1.36027453-.3693057l3.464 2c.39194126.2263139.58302085.6876562.46588095 1.1248223s-.51329289.7411578-.96588095.7411777z"/><path id="Shape" d="m17.5 9.35c-.3576137.00034843-.6881932-.19029718-.867-.5l-2-3.464c-.1814844-.30957042-.1831833-.69264947-.0044519-1.00381742.1787315-.31116795.5104885-.50271357.8693336-.50192468.3588451.00078888.6897567.19379132.8671183.5057421l2 3.464c.1785415.30924248.1786393.6902222.0002566.99955632-.1783827.30933411-.5081742.50007763-.8652566.50044368z"/><path id="Shape" d="m30 6c-.5522847 0-1-.44771525-1-1v-4c0-.55228475.4477153-1 1-1s1 .44771525 1 1v4c0 .55228475-.4477153 1-1 1z"/><path id="Shape" d="m42.5 9.35c-.3570824-.00036605-.6868739-.19110957-.8652566-.50044368-.1783827-.30933412-.1782849-.69031384.0002566-.99955632l2-3.464c.1773616-.31195078.5082732-.50495322.8671183-.5057421.3588451-.00078889.6906021.19075673.8693336.50192468.1787314.31116795.1770325.694247-.0044519 1.00381742l-2 3.464c-.1788068.30970282-.5093863.50034843-.867.5z"/><path id="Shape" d="m51.652 18.5c-.4525881-.0000199-.8487411-.3040116-.9658809-.7411777-.1171399-.4371661.0739396-.8985084.4658809-1.1248223l3.464-2c.47786-.2716903 1.0854205-.1067416 1.3602745.3693057.2748541.4760473.1139391 1.0846885-.3602745 1.3626943l-3.464 2c-.1520167.0877772-.324461.1339923-.5.134z"/><path id="Shape" d="m59 31h-4c-.5522847 0-1-.4477153-1-1s.4477153-1 1-1h4c.5522847 0 1 .4477153 1 1s-.4477153 1-1 1z"/></g><path id="Shape" d="m33 45c-.5522847 0-1-.4477153-1-1v-7c0-.5522847.4477153-1 1-1s1 .4477153 1 1v7c0 .5522847-.4477153 1-1 1z" fill="#e57e25"/><path id="Shape" d="m28 45c-.5522847 0-1-.4477153-1-1v-6c0-.5522847.4477153-1 1-1s1 .4477153 1 1v6c0 .5522847-.4477153 1-1 1z" fill="#e57e25"/><path id="Shape" d="m39.38 19.32c-1.2452592-2.4909332-4.0392869-3.7993655-6.7499878-3.1609931-2.7107009.6383725-4.6272055 3.0561393-4.6300122 5.8409931-1.6 6.4-9.61 8.96-12.74 9.73-.8155056.2005418-1.3525298.9788507-1.2505619 1.8124388.101968.833588.8107627 1.4595032 1.6505619 1.4575612h4.22l3.68 1.75c2.4719867 3.3715359 7.1231411 4.2711847 10.6740691 2.0646302s4.8040957-6.7751622 2.8759309-10.4846302c-.2606658-.4989101-.1058225-1.113982.36-1.43.8066027-.5721167 1.4592908-1.3347313 1.9-2.22z" fill="#3b97d3"/><path id="Shape" d="m42.187 25.481-3.263-.932c-1.1385881-.3246898-1.9238361-1.3650209-1.924-2.549.0001639-1.1839791.7854119-2.2243102 1.924-2.549l3.263-.932c.2624241-.0754982.5437307.0252297.6985857.2501436.1548551.2249139.148579.5236448-.0155857.7418564l-1.582 2.108c-.1690007.2258885-.1690007.5361115 0 .762l1.582 2.108c.1641647.2182116.1704408.5169425.0155857.7418564-.154855.2249139-.4361616.3256418-.6985857.2501436z" fill="#e57e25"/><circle id="Oval" cx="34" cy="20" fill="#35495e" r="1"/><path id="Shape" d="m21.556 37h-1.68c-.3780439-.0017132-.712751-.2446915-.8314841-.60361-.1187332-.3589186.005042-.7535665.3074841-.98039 7.767-5.878 8.648-13.416 8.648-13.416s1.353 1.38 1.942 6.013c.606 4.768-3.603 8.987-8.386 8.987z" fill="#2980ba"/><path id="Shape" d="m59 45h-58c-.55228475 0-1-.4477153-1-1s.44771525-1 1-1h58c.5522847 0 1 .4477153 1 1s-.4477153 1-1 1z" fill="#f29c1f"/><path id="Shape" d="m54 50h-48c-.55228475 0-1-.4477153-1-1s.44771525-1 1-1h48c.5522847 0 1 .4477153 1 1s-.4477153 1-1 1z" fill="#e57e25"/><path id="Shape" d="m48 55h-36c-.5522847 0-1-.4477153-1-1s.4477153-1 1-1h36c.5522847 0 1 .4477153 1 1s-.4477153 1-1 1z" fill="#d25627"/><path id="Shape" d="m40 60h-20c-.5522847 0-1-.4477153-1-1s.4477153-1 1-1h20c.5522847 0 1 .4477153 1 1s-.4477153 1-1 1z" fill="#c03a2b"/></g></g></svg>