<svg id="Capa_1" enable-background="new 0 0 495.62 495.62" height="512" viewBox="0 0 495.62 495.62" width="512" xmlns="http://www.w3.org/2000/svg"><g><g><path d="m102.91 187.38c-4.142 0-7.5-3.357-7.5-7.5v-28.63c0-4.143 3.358-7.5 7.5-7.5s7.5 3.357 7.5 7.5v28.63c0 4.142-3.358 7.5-7.5 7.5z" fill="#ffe5c2"/></g><g><path d="m102.91 44.8c-4.142 0-7.5-3.357-7.5-7.5v-29.8c0-4.143 3.358-7.5 7.5-7.5s7.5 3.357 7.5 7.5v29.8c0 4.142-3.358 7.5-7.5 7.5z" fill="#ffe5c2"/></g><g><path d="m45.94 101.19h-29.22c-4.142 0-7.5-3.357-7.5-7.5s3.358-7.5 7.5-7.5h29.22c4.142 0 7.5 3.357 7.5 7.5s-3.358 7.5-7.5 7.5z" fill="#ffe5c2"/></g><g><path d="m189.1 101.19h-29.23c-4.142 0-7.5-3.357-7.5-7.5s3.358-7.5 7.5-7.5h29.23c4.142 0 7.5 3.357 7.5 7.5s-3.358 7.5-7.5 7.5z" fill="#ffe5c2"/></g><g><path d="m163.85 162.14c-1.919 0-3.839-.732-5.303-2.196l-20.37-20.369c-2.929-2.929-2.929-7.678 0-10.606 2.929-2.93 7.678-2.929 10.606-.001l20.37 20.369c2.929 2.929 2.929 7.678 0 10.606-1.464 1.464-3.383 2.197-5.303 2.197z" fill="#ffe5c2"/></g><g><path d="m62.91 61.2c-1.919 0-3.839-.732-5.303-2.196l-20.95-20.95c-2.929-2.93-2.929-7.678 0-10.607 2.929-2.928 7.678-2.928 10.606 0l20.95 20.95c2.929 2.93 2.929 7.678 0 10.607-1.464 1.464-3.383 2.196-5.303 2.196z" fill="#ffe5c2"/></g><g><path d="m41.96 162.14c-1.919 0-3.839-.732-5.303-2.197-2.929-2.929-2.929-7.678 0-10.606l20.37-20.369c2.929-2.928 7.678-2.929 10.606.001 2.929 2.929 2.929 7.678 0 10.606l-20.37 20.369c-1.464 1.463-3.384 2.196-5.303 2.196z" fill="#ffe5c2"/></g><g><path d="m142.9 61.2c-1.919 0-3.839-.732-5.303-2.196-2.929-2.93-2.929-7.678 0-10.607l20.95-20.95c2.929-2.928 7.678-2.928 10.606 0 2.929 2.93 2.929 7.678 0 10.607l-20.95 20.95c-1.464 1.464-3.384 2.196-5.303 2.196z" fill="#ffe5c2"/></g><path d="m445.62 280.84v54.99l-60.31 26.29-63.75-26.29v-172.36l36.42-.44c24.72 0 43.91 14.78 57.95 32.2 19.5 24.19 29.69 54.56 29.69 85.61z" fill="#fff3de"/><path d="m415.93 195.23c-14.04-17.42-33.23-32.2-57.95-32.2l-16.368.198c22.387 1.788 39.98 15.743 53.085 32.002 19.5 24.19 29.69 54.56 29.69 85.61v54.99l11.117 4.41 10.117-4.41v-54.99c-.001-31.05-10.191-61.42-29.691-85.61z" fill="#ffe5c2"/><path d="m478.912 495.62h-462.204c-10.418 0-18.201-9.581-16.065-19.778l13.383-70.157c1.592-7.603 8.297-13.049 16.065-13.049h435.439c7.768 0 14.473 5.446 16.065 13.049l13.383 70.157c2.135 10.197-5.647 19.778-16.066 19.778z" fill="#fe6c55"/><path d="m494.977 475.842-13.383-70.157c-1.592-7.603-8.297-13.049-16.065-13.049h-21.233c7.768 0 14.473 5.446 16.065 13.049l13.383 70.157c2.136 10.197-5.647 19.778-16.065 19.778h21.233c10.419 0 18.201-9.581 16.065-19.778z" fill="#fd544d"/><path d="m191.195 236.657 1.128-11.56c.302-3.092 4.036-4.475 6.279-2.325l13.453 12.895c1.836 1.759 4.04 3.088 6.454 3.889l20.977 6.963v19.601l-12.909 14.915-28.909-27.165c-4.71-4.424-7.1-10.782-6.473-17.213z" fill="#fed2a4"/><path d="m367.847 198.337-.564-.211c-12.207-4.57-25.807 1.624-30.373 13.833l-15.794 42.231c-2.024 5.411-8.05 8.156-13.461 6.133l-55.008-20.573c-5.149-1.926-10.885.687-12.811 5.837l-13.258 35.449 92.652 34.652c14.498 5.422 30.646-1.935 36.068-16.433l26.383-70.544c4.564-12.208-1.629-25.805-13.834-30.374z" fill="#fff3de"/><path d="m367.847 198.337-.571-.214c-6.391-2.39-13.16-1.826-18.817 1.001 10.97 5.19 16.318 18.006 11.99 29.58l-26.386 70.551c-2.852 7.625-8.672 13.271-15.658 16.125l.823.308c14.498 5.422 30.646-1.935 36.068-16.433l26.386-70.551c4.565-12.206-1.629-25.802-13.835-30.367z" fill="#ffe5c2"/><path d="m445.62 335.83v64.34c0 25.85-20.96 46.82-46.81 46.82h-177.02c-19.26 0-34.86-15.61-34.86-34.85v-41.45c0-19.25 15.6-34.86 34.86-34.86z" fill="#97da7b"/><path d="m424.387 335.83v64.34c0 25.85-20.96 46.82-46.81 46.82h21.233c25.85 0 46.81-20.97 46.81-46.82v-64.34z" fill="#80d261"/><path d="m226.146 446.986h128.012v-47.611c0-3.722-3.017-6.739-6.739-6.739h-121.273z" fill="#97da7b"/><path d="m377.194 407.217h-23.036l-7.848 18.903 7.848 20.867h16.153l12.794 14.899c1.124 1.309 2.764 2.063 4.49 2.063h16.434c4.162 0 7.024-4.183 5.516-8.062l-14.046-36.145c-2.935-7.551-10.204-12.525-18.305-12.525z" fill="#fed2a4"/><path d="m409.545 455.887-14.047-36.146c-2.934-7.55-10.203-12.524-18.304-12.524h-21.233c8.101 0 15.37 4.974 18.304 12.524l14.047 36.146c1.193 3.071-.357 6.324-3.117 7.55.748.332 1.563.512 2.4.512h16.434c4.162 0 7.023-4.182 5.516-8.062z" fill="#ffbd86"/><circle cx="102.907" cy="94.276" fill="#ffe177" r="56.977"/><path d="m102.907 37.299c-3.63 0-7.175.354-10.617 1.003 26.392 4.976 46.36 28.136 46.36 55.974s-19.969 50.998-46.36 55.974c3.441.649 6.987 1.003 10.617 1.003 31.468 0 56.977-25.51 56.977-56.977 0-31.468-25.51-56.977-56.977-56.977z" fill="#ffd15b"/><path d="m320.008 189.13.029-.014c30.381-17.432 40.882-56.197 23.449-86.578l-6.922-11.561-52.754 12.143-36.918 36.714 20.566 35.07c10.575 18.44 34.109 24.814 52.55 14.226z" fill="#fed2a4"/><path d="m343.486 102.537-6.922-11.561-10.291 2.369-5.719 6.354c17.432 30.381 8.631 71.984-21.75 89.416l-.029.014c-2.75 1.579-5.614 2.772-8.53 3.613 9.652 2.764 20.368 1.782 29.763-3.613l.029-.014c30.381-17.432 40.881-56.197 23.449-86.578z" fill="#ffbd86"/><path d="m246.892 139.834 89.671-48.858-6.499-10.867c-9.799-17.08-31.585-22.969-48.659-13.177l-26.601 15.266c-17.073 9.792-22.977 31.578-13.177 48.659z" fill="#fff3de"/><path d="m308.831 80.11 6.499 10.866 5.223 8.723 16.01-8.723-6.499-10.866c-8.479-14.78-25.932-21.17-41.542-16.282 8.282 2.578 15.651 8.162 20.309 16.282z" fill="#ffe5c2"/><path d="m353.968 397.808c-1.054-7.029-6.767-12.668-14.05-12.668h-74.432c-4.21 0-7.614 3.465-7.497 7.712.113 4.112 3.695 7.288 7.808 7.288h67.128v46.846h21.233v-47.611c0-.541-.07-1.063-.19-1.567z" fill="#80d261"/><g><path d="m144.221 400.134c-1.804 0-3.612-.646-5.05-1.957l-81.893-74.647c-3.062-2.79-3.281-7.534-.491-10.596 2.791-3.062 7.534-3.28 10.595-.49l81.893 74.646c3.062 2.79 3.281 7.534.491 10.596-1.48 1.624-3.51 2.448-5.545 2.448z" fill="#b87d72"/></g><g><path d="m62.332 400.134c-2.036 0-4.065-.824-5.545-2.447-2.79-3.062-2.571-7.806.491-10.596l81.893-74.646c3.06-2.79 7.804-2.57 10.595.49 2.79 3.062 2.571 7.806-.491 10.596l-81.893 74.646c-1.437 1.31-3.246 1.957-5.05 1.957z" fill="#c38f86"/></g></g></svg>