<svg clip-rule="evenodd" fill-rule="evenodd" height="512" image-rendering="optimizeQuality" shape-rendering="geometricPrecision" text-rendering="geometricPrecision" viewBox="0 0 1707 1707" width="512" xmlns="http://www.w3.org/2000/svg"><g id="Layer_x0020_1"><g id="_459209176"><path d="m853 560c253 0 457 204 457 457 0 134-58 256-151 339h-611c-93-83-151-205-151-339 0-253 204-457 456-457z" fill="#f4c534"/><path d="m853 560c253 0 457 204 457 457 0 134-58 256-151 339h-356c-150-74-254-230-254-409 0-155 77-291 195-374 35-9 72-13 109-13z" fill="#ffd93b"/><g fill-rule="nonzero"><path d="m840 193c0-16-13-30-30-30-16 0-30 14-30 30v273c0 17 14 30 30 30 17 0 30-13 30-30z" fill="#f4c534"/><path d="m926 330c0-17-13-30-30-30-16 0-30 13-30 30v136c0 17 14 30 30 30 17 0 30-13 30-30z" fill="#f4c534"/><path d="m1254 297c8-14 3-33-11-41s-33-3-41 11l-136 236c-9 15-4 33 10 41 15 9 33 4 41-11z" fill="#f4c534"/><path d="m1260 458c8-14 3-32-11-41-14-8-33-3-41 11l-68 118c-9 15-4 33 11 41 14 9 32 4 41-11z" fill="#f4c534"/><path d="m1560 594c14-9 19-27 11-41-8-15-27-19-41-11l-236 136c-15 9-20 27-11 41 8 15 26 19 41 11z" fill="#f4c534"/><path d="m1485 736c14-8 19-26 10-41-8-14-26-19-40-11l-119 69c-14 8-19 26-10 40 8 15 26 20 40 11z" fill="#f4c534"/><path d="m1677 1004c16 0 30-14 30-30 0-17-14-30-30-30h-273c-17 0-30 13-30 30 0 16 13 30 30 30z" fill="#f4c534"/><path d="m1540 1089c17 0 30-13 30-30 0-16-13-30-30-30h-136c-17 0-30 14-30 30 0 17 13 30 30 30z" fill="#f4c534"/><path d="m30 1029c-17 0-30 14-30 30 0 17 13 30 30 30h273c17 0 30-13 30-30 0-16-13-30-30-30z" fill="#f4c534"/><path d="m166 944c-16 0-30 13-30 30 0 16 14 30 30 30h137c17 0 30-14 30-30 0-17-13-30-30-30z" fill="#f4c534"/><path d="m134 616c-14-8-33-3-41 11s-3 33 11 41l236 136c15 9 33 4 41-11 8-14 4-32-11-40z" fill="#f4c534"/><path d="m295 610c-14-8-33-3-41 11s-3 33 11 41l118 68c14 8 33 4 41-11 8-14 3-32-11-41z" fill="#f4c534"/><path d="m430 310c-8-14-26-19-40-11-15 8-20 27-11 41l136 236c8 15 27 20 41 11 14-8 19-26 11-41z" fill="#f4c534"/><path d="m573 385c-8-14-27-19-41-11-14 9-19 27-11 41l68 118c9 15 27 20 41 11 15-8 19-26 11-41z" fill="#f4c534"/><path d="m115 1338c-17 0-30 13-30 30 0 16 13 30 30 30h1477c16 0 30-14 30-30 0-17-14-30-30-30z" fill="#6cbff8"/><path d="m442 1483c-17 0-30 14-30 30 0 17 13 30 30 30h823c16 0 30-13 30-30 0-16-14-30-30-30z" fill="#6cbff8"/></g></g></g></svg>