<?xml version="1.0" encoding="UTF-8"?>
<svg version="1.1" xmlns="http://www.w3.org/2000/svg" width="54" height="59">
<path d="M0 0 C0.77915771 -0.00539795 1.55831543 -0.0107959 2.36108398 -0.01635742 C6.43399506 0.01911866 9.75230784 0.17699139 13.5 1.9375 C17.26013866 3.37318931 17.6429403 3.30765556 21.125 1.875 C21.73730469 1.55789062 22.34960938 1.24078125 22.98046875 0.9140625 C24.9375 0.25 24.9375 0.25 29.9375 1.25 C29.9375 15.44 29.9375 29.63 29.9375 44.25 C24.9375 46.25 19.9375 48.25 14.9375 50.25 C12.93445414 48.9212468 10.93490146 47.58722293 8.9375 46.25 C6.00434401 45.6563934 3.11156786 45.6006914 0.125 45.5625 C-7.97211538 45.34038462 -7.97211538 45.34038462 -9.0625 44.25 C-9.16035341 42.90455673 -9.19047985 41.55407437 -9.19189453 40.20507812 C-9.19504669 39.34748901 -9.19819885 38.4898999 -9.20144653 37.60632324 C-9.1994223 36.67404907 -9.19739807 35.7417749 -9.1953125 34.78125 C-9.19626923 33.83060669 -9.19722595 32.87996338 -9.19821167 31.9005127 C-9.19889357 29.88631118 -9.19703862 27.87210748 -9.19287109 25.85791016 C-9.18752298 22.76329645 -9.19281577 19.6688279 -9.19921875 16.57421875 C-9.19855797 14.62239551 -9.19727681 12.67057236 -9.1953125 10.71875 C-9.19733673 9.78647583 -9.19936096 8.85420166 -9.20144653 7.89367676 C-9.19829437 7.03608765 -9.19514221 6.17849854 -9.19189453 5.29492188 C-9.19109894 4.53626831 -9.19030334 3.77761475 -9.18948364 2.99597168 C-8.86229093 -1.50279056 -3.43695216 0.01544778 0 0 Z M-4.0625 7.25 C-4.0625 17.81 -4.0625 28.37 -4.0625 39.25 C-2.7425 39.25 -1.4225 39.25 -0.0625 39.25 C-0.0625 28.69 -0.0625 18.13 -0.0625 7.25 C-1.3825 7.25 -2.7025 7.25 -4.0625 7.25 Z M4.9375 7.25 C4.9375 17.81 4.9375 28.37 4.9375 39.25 C7.9075 39.91 10.8775 40.57 13.9375 41.25 C14.9275 41.58 15.9175 41.91 16.9375 42.25 C19.30272558 41.32796291 21.64151807 40.33301035 23.9375 39.25 C25.30593847 29.67093068 20.54061689 22.32253477 15.9375 14.25 C15.33421875 13.11949219 14.7309375 11.98898438 14.109375 10.82421875 C11.73323428 7.42863809 11.73323428 7.42863809 4.9375 7.25 Z M21.9375 8.25 C21.2775 8.91 20.6175 9.57 19.9375 10.25 C20.9275 12.23 21.9175 14.21 22.9375 16.25 C23.2675 16.25 23.5975 16.25 23.9375 16.25 C23.9375 13.61 23.9375 10.97 23.9375 8.25 C23.2775 8.25 22.6175 8.25 21.9375 8.25 Z " fill="#82A593" transform="translate(16.0625,5.75)"/>
</svg>
